<svg width="414" height="379" viewBox="0 0 414 379" fill="none" xmlns="http://www.w3.org/2000/svg">
<path d="M129 98.5H287C292.247 98.5 296.5 102.753 296.5 108V266C296.5 271.247 292.247 275.5 287 275.5H129C123.753 275.5 119.5 271.247 119.5 266V108C119.5 102.753 123.753 98.5 129 98.5Z" stroke="#0D0D0D" stroke-width="5"/>
<path d="M132 123C132 116.373 137.373 111 144 111H272C278.627 111 284 116.373 284 123V251C284 257.627 278.627 263 272 263H144C137.373 263 132 257.627 132 251V123Z" fill="#0D0D0D"/>
<path d="M159.02 194.5V182.26H152.9V180.1H167.3V182.26H161.18V194.5H159.02ZM171.296 194.5C170.816 194.5 170.382 194.38 169.996 194.14C169.609 193.9 169.296 193.587 169.056 193.2C168.816 192.813 168.696 192.38 168.696 191.9V185.5C168.696 185.02 168.816 184.587 169.056 184.2C169.296 183.813 169.609 183.5 169.996 183.26C170.382 183.02 170.816 182.9 171.296 182.9H177.896C178.376 182.9 178.809 183.02 179.196 183.26C179.596 183.487 179.909 183.8 180.136 184.2C180.376 184.6 180.496 185.033 180.496 185.5V189.78H170.856V191.84C170.856 191.973 170.902 192.093 170.996 192.2C171.102 192.293 171.222 192.34 171.356 192.34H180.496V194.5H171.296ZM170.856 187.76H178.316V185.56C178.316 185.427 178.269 185.313 178.176 185.22C178.082 185.113 177.969 185.06 177.836 185.06H171.356C171.222 185.06 171.102 185.113 170.996 185.22C170.902 185.313 170.856 185.427 170.856 185.56V187.76ZM184.714 194.5C184.234 194.5 183.8 194.38 183.414 194.14C183.027 193.9 182.714 193.587 182.474 193.2C182.234 192.813 182.114 192.38 182.114 191.9V185.5C182.114 185.02 182.234 184.587 182.474 184.2C182.714 183.813 183.027 183.5 183.414 183.26C183.8 183.02 184.234 182.9 184.714 182.9H193.874V185.06H184.774C184.64 185.06 184.52 185.113 184.414 185.22C184.32 185.313 184.274 185.427 184.274 185.56V191.84C184.274 191.973 184.32 192.093 184.414 192.2C184.52 192.293 184.64 192.34 184.774 192.34H193.914V194.5H184.714ZM195.689 194.5V179.1H197.849V182.9H204.889C205.356 182.9 205.783 183.02 206.169 183.26C206.569 183.5 206.889 183.813 207.129 184.2C207.369 184.587 207.489 185.02 207.489 185.5V194.5H205.329V185.56C205.329 185.427 205.276 185.313 205.169 185.22C205.076 185.113 204.963 185.06 204.829 185.06H198.349C198.216 185.06 198.096 185.113 197.989 185.22C197.896 185.313 197.849 185.427 197.849 185.56V194.5H195.689ZM211.589 194.5C211.109 194.5 210.675 194.38 210.289 194.14C209.902 193.9 209.589 193.587 209.349 193.2C209.109 192.813 208.989 192.38 208.989 191.9V185.5C208.989 185.02 209.109 184.587 209.349 184.2C209.589 183.813 209.902 183.5 210.289 183.26C210.675 183.02 211.109 182.9 211.589 182.9H218.189C218.669 182.9 219.102 183.02 219.489 183.26C219.889 183.487 220.202 183.8 220.429 184.2C220.669 184.6 220.789 185.033 220.789 185.5V191.9C220.789 192.38 220.669 192.813 220.429 193.2C220.202 193.587 219.889 193.9 219.489 194.14C219.102 194.38 218.669 194.5 218.189 194.5H211.589ZM211.649 192.34H218.129C218.262 192.34 218.375 192.293 218.469 192.2C218.562 192.093 218.609 191.973 218.609 191.84V185.56C218.609 185.427 218.562 185.313 218.469 185.22C218.375 185.113 218.262 185.06 218.129 185.06H211.649C211.515 185.06 211.395 185.113 211.289 185.22C211.195 185.313 211.149 185.427 211.149 185.56V191.84C211.149 191.973 211.195 192.093 211.289 192.2C211.395 192.293 211.515 192.34 211.649 192.34ZM222.956 194.5V180.08H225.116V192.34H237.356V194.5H222.956ZM238.442 194.5V182.9H240.602V194.5H238.442ZM238.442 181.26V179.1H240.602V181.26H238.442ZM242.33 194.5V181.7C242.33 181.22 242.443 180.787 242.67 180.4C242.91 180 243.223 179.687 243.61 179.46C244.01 179.22 244.45 179.1 244.93 179.1H249.25V181.26H244.99C244.856 181.26 244.736 181.313 244.63 181.42C244.536 181.513 244.49 181.627 244.49 181.76V182.9H249.25V185.06H244.49V194.5H242.33ZM253.268 194.5C252.788 194.5 252.355 194.38 251.968 194.14C251.582 193.9 251.268 193.587 251.028 193.2C250.788 192.813 250.668 192.38 250.668 191.9V185.5C250.668 185.02 250.788 184.587 251.028 184.2C251.268 183.813 251.582 183.5 251.968 183.26C252.355 183.02 252.788 182.9 253.268 182.9H259.868C260.348 182.9 260.782 183.02 261.168 183.26C261.568 183.487 261.882 183.8 262.108 184.2C262.348 184.6 262.468 185.033 262.468 185.5V189.78H252.828V191.84C252.828 191.973 252.875 192.093 252.968 192.2C253.075 192.293 253.195 192.34 253.328 192.34H262.468V194.5H253.268ZM252.828 187.76H260.288V185.56C260.288 185.427 260.242 185.313 260.148 185.22C260.055 185.113 259.942 185.06 259.808 185.06H253.328C253.195 185.06 253.075 185.113 252.968 185.22C252.875 185.313 252.828 185.427 252.828 185.56V187.76Z" fill="white"/>
<path d="M231.988 15.8947C231.988 13.1333 234.227 10.8947 236.988 10.8947V10.8947C239.75 10.8947 241.988 13.1333 241.988 15.8947V85.8947C241.988 88.6562 239.75 90.8947 236.988 90.8947V90.8947C234.227 90.8947 231.988 88.6562 231.988 85.8947V15.8947Z" fill="#0D0D0D"/>
<circle cx="236.988" cy="10.8947" r="9.5" fill="#91F2CF" stroke="#0D0D0D"/>
<path d="M10.5436 107.394C8.44133 106.554 7.06244 104.519 7.06244 102.255V102.255C7.06245 98.2508 11.1841 95.5725 14.8432 97.199L57.1375 116H100.292C103.053 116 105.292 118.239 105.292 121V121C105.292 123.761 103.053 126 100.292 126H57.1375L10.5436 107.394Z" fill="#0D0D0D"/>
<circle cx="10.9847" cy="99.8701" r="9.5" transform="rotate(-90 10.9847 99.8701)" fill="#91F2CF" stroke="#0D0D0D"/>
<path d="M132.869 19.1285C131.694 15.8421 134.13 12.3836 137.62 12.3836V12.3836C139.753 12.3836 141.656 13.7251 142.373 15.7343L154.497 49.7289L153.899 84.2844C153.851 87.0353 151.608 89.2404 148.856 89.2404V89.2404C146.071 89.2404 143.813 86.9824 143.813 84.1971V49.7289L132.869 19.1285Z" fill="#0D0D0D"/>
<circle cx="136.009" cy="12.3836" r="9.5" fill="#91F2CF" stroke="#0D0D0D"/>
<path d="M35.18 262.547C31.8936 263.723 28.4351 261.286 28.4351 257.796V257.796C28.4351 255.663 29.7766 253.76 31.7858 253.044L65.7804 240.919L100.336 241.518C103.087 241.565 105.292 243.809 105.292 246.56V246.56C105.292 249.345 103.034 251.603 100.249 251.603H65.7804L35.18 262.547Z" fill="#0D0D0D"/>
<circle cx="28.4351" cy="259.407" r="9.5" transform="rotate(-90 28.4351 259.407)" fill="#91F2CF" stroke="#0D0D0D"/>
<path d="M274.013 54.2404C274.013 51.4789 276.252 49.2404 279.013 49.2404V49.2404C281.775 49.2404 284.013 51.4789 284.013 54.2404V84.2404C284.013 87.0018 281.775 89.2404 279.013 89.2404V89.2404C276.252 89.2404 274.013 87.0018 274.013 84.2404V54.2404Z" fill="#0D0D0D"/>
<path d="M70.2918 156.363C67.5304 156.363 65.2918 154.125 65.2918 151.363V151.363C65.2918 148.602 67.5304 146.363 70.2918 146.363H100.292C103.053 146.363 105.292 148.602 105.292 151.363V151.363C105.292 154.125 103.053 156.363 100.292 156.363H70.2918Z" fill="#0D0D0D"/>
<circle cx="65.2918" cy="151.363" r="9.5" transform="rotate(-90 65.2918 151.363)" fill="#91F2CF" stroke="#0D0D0D"/>
<path d="M189.963 54.2404C189.963 51.4789 192.201 49.2404 194.963 49.2404V49.2404C197.724 49.2404 199.963 51.4789 199.963 54.2404V84.2404C199.963 87.0018 197.724 89.2404 194.963 89.2404V89.2404C192.201 89.2404 189.963 87.0018 189.963 84.2404V54.2404Z" fill="#0D0D0D"/>
<path d="M70.2918 202C67.5304 202 65.2918 199.761 65.2918 197V197C65.2918 194.239 67.5304 192 70.2918 192H100.292C103.053 192 105.292 194.239 105.292 197V197C105.292 199.761 103.053 202 100.292 202H70.2918Z" fill="#0D0D0D"/>
<path d="M381.269 182C384.031 182 386.269 184.239 386.269 187V187C386.269 189.761 384.031 192 381.269 192H311.269C308.508 192 306.269 189.761 306.269 187V187C306.269 184.239 308.508 182 311.269 182H381.269Z" fill="#0D0D0D"/>
<path d="M394.413 116.23C397.307 114.361 401.188 115.683 402.338 118.931V118.931C403.178 121.304 402.245 123.942 400.099 125.26L355.306 152.755H311.269C308.508 152.755 306.269 150.517 306.269 147.755V147.755C306.269 144.994 308.508 142.755 311.269 142.755H353.349L394.413 116.23Z" fill="#0D0D0D"/>
<circle cx="403.779" cy="116.889" r="9.5" transform="rotate(90 403.779 116.889)" fill="#91F2CF" stroke="#0D0D0D"/>
<path d="M353.482 232.118C355.164 232.778 356.269 234.4 356.269 236.206V236.206C356.269 239.274 353.204 241.396 350.332 240.316L331.443 233.212H311.269C308.508 233.212 306.269 230.974 306.269 228.212V228.212C306.269 225.451 308.508 223.212 311.269 223.212L330.788 223.212L353.482 232.118Z" fill="#0D0D0D"/>
<circle cx="352.775" cy="236.497" r="9.5" transform="rotate(90 352.775 236.497)" fill="#91F2CF" stroke="#0D0D0D"/>
<path d="M233.032 363.236C233.032 365.997 230.794 368.236 228.032 368.236V368.236C225.271 368.236 223.032 365.997 223.032 363.236V293.236C223.032 290.474 225.271 288.236 228.032 288.236V288.236C230.794 288.236 233.032 290.474 233.032 293.236V363.236Z" fill="#0D0D0D"/>
<circle cx="228.032" cy="368.236" r="9.5" transform="rotate(-180 228.032 368.236)" fill="#91F2CF" stroke="#0D0D0D"/>
<path d="M146.091 370.808C145.303 371.968 143.991 372.663 142.589 372.663V372.663C139.237 372.663 137.215 368.953 139.032 366.136L159.177 334.898V293.236C159.177 290.474 161.416 288.236 164.177 288.236V288.236C166.939 288.236 169.177 290.474 169.177 293.236L169.177 336.798L146.091 370.808Z" fill="#0D0D0D"/>
<circle cx="142" cy="368.236" r="9.5" transform="rotate(-180 142 368.236)" fill="#91F2CF" stroke="#0D0D0D"/>
<path d="M267.02 313.236C267.02 315.997 264.782 318.236 262.02 318.236V318.236C259.259 318.236 257.02 315.997 257.02 313.236V293.236C257.02 290.474 259.259 288.236 262.02 288.236V288.236C264.782 288.236 267.02 290.474 267.02 293.236V313.236Z" fill="#0D0D0D"/>
<path d="M201.122 313.235C201.122 315.997 198.883 318.235 196.122 318.235V318.235C193.36 318.235 191.122 315.997 191.122 313.235V293.235C191.122 290.474 193.36 288.235 196.122 288.235V288.235C198.883 288.235 201.122 290.474 201.122 293.235V313.235Z" fill="#0D0D0D"/>
</svg>
