<svg width="414" height="379" viewBox="0 0 414 379" fill="none" xmlns="http://www.w3.org/2000/svg">
<path d="M128.744 98.5H286.744C291.991 98.5 296.244 102.753 296.244 108V266C296.244 271.247 291.991 275.5 286.744 275.5H128.744C123.497 275.5 119.244 271.247 119.244 266V108C119.244 102.753 123.497 98.5 128.744 98.5Z" stroke="#F5F5F5" stroke-width="5"/>
<path d="M131.744 123C131.744 116.373 137.116 111 143.744 111H271.744C278.371 111 283.744 116.373 283.744 123V251C283.744 257.627 278.371 263 271.744 263H143.744C137.116 263 131.744 257.627 131.744 251V123Z" fill="#F5F5F5"/>
<path d="M174.324 191.5V183.832H170.484V182.86H179.124V183.832H175.296V191.5H174.324ZM181.413 191.5C181.149 191.5 180.905 191.436 180.681 191.308C180.465 191.172 180.289 190.996 180.153 190.78C180.025 190.556 179.961 190.312 179.961 190.048V185.992C179.961 185.728 180.025 185.488 180.153 185.272C180.289 185.048 180.465 184.872 180.681 184.744C180.905 184.608 181.149 184.54 181.413 184.54H185.589C185.861 184.54 186.105 184.608 186.321 184.744C186.545 184.872 186.721 185.048 186.849 185.272C186.985 185.488 187.053 185.728 187.053 185.992V188.512H180.945V190.048C180.945 190.176 180.989 190.288 181.077 190.384C181.173 190.472 181.285 190.516 181.413 190.516H187.053V191.5H181.413ZM180.945 187.528H186.057V185.992C186.057 185.864 186.009 185.756 185.913 185.668C185.825 185.572 185.717 185.524 185.589 185.524H181.413C181.285 185.524 181.173 185.572 181.077 185.668C180.989 185.756 180.945 185.864 180.945 185.992V187.528ZM189.488 191.5C189.224 191.5 188.98 191.436 188.756 191.308C188.54 191.172 188.364 190.996 188.228 190.78C188.1 190.556 188.036 190.312 188.036 190.048V185.992C188.036 185.728 188.1 185.488 188.228 185.272C188.364 185.048 188.54 184.872 188.756 184.744C188.98 184.608 189.224 184.54 189.488 184.54H195.104V185.524H189.488C189.36 185.524 189.248 185.572 189.152 185.668C189.064 185.756 189.02 185.864 189.02 185.992V190.048C189.02 190.176 189.064 190.288 189.152 190.384C189.248 190.472 189.36 190.516 189.488 190.516H195.128V191.5H189.488ZM196.24 191.5V182.26H197.224V184.54H201.88C202.144 184.54 202.384 184.608 202.6 184.744C202.824 184.872 203 185.048 203.128 185.272C203.264 185.488 203.332 185.728 203.332 185.992V191.5H202.348V185.992C202.348 185.864 202.3 185.756 202.204 185.668C202.116 185.572 202.008 185.524 201.88 185.524H197.704C197.576 185.524 197.464 185.572 197.368 185.668C197.272 185.756 197.224 185.864 197.224 185.992V191.5H196.24ZM204.255 191.5V184.54H209.895C210.159 184.54 210.399 184.608 210.615 184.744C210.839 184.872 211.015 185.048 211.143 185.272C211.279 185.488 211.347 185.728 211.347 185.992V191.5H210.363V185.992C210.363 185.864 210.315 185.756 210.219 185.668C210.131 185.572 210.023 185.524 209.895 185.524H205.719C205.591 185.524 205.479 185.572 205.383 185.668C205.287 185.756 205.239 185.864 205.239 185.992V191.5H204.255ZM213.851 191.5C213.587 191.5 213.343 191.436 213.119 191.308C212.903 191.172 212.727 190.996 212.591 190.78C212.463 190.556 212.399 190.312 212.399 190.048V185.992C212.399 185.728 212.463 185.488 212.591 185.272C212.727 185.048 212.903 184.872 213.119 184.744C213.343 184.608 213.587 184.54 213.851 184.54H218.027C218.299 184.54 218.543 184.608 218.759 184.744C218.983 184.872 219.159 185.048 219.287 185.272C219.423 185.488 219.491 185.728 219.491 185.992V190.048C219.491 190.312 219.423 190.556 219.287 190.78C219.159 190.996 218.983 191.172 218.759 191.308C218.543 191.436 218.299 191.5 218.027 191.5H213.851ZM213.851 190.516H218.027C218.155 190.516 218.263 190.472 218.351 190.384C218.447 190.288 218.495 190.176 218.495 190.048V185.992C218.495 185.864 218.447 185.756 218.351 185.668C218.263 185.572 218.155 185.524 218.027 185.524H213.851C213.723 185.524 213.611 185.572 213.515 185.668C213.427 185.756 213.383 185.864 213.383 185.992V190.048C213.383 190.176 213.427 190.288 213.515 190.384C213.611 190.472 213.723 190.516 213.851 190.516ZM220.779 191.5V182.848H221.751V190.528H229.419V191.5H220.779ZM230.071 191.5V184.54H231.055V191.5H230.071ZM230.071 183.244V182.26H231.055V183.244H230.071ZM232.017 191.5V183.712C232.017 183.44 232.081 183.196 232.209 182.98C232.337 182.756 232.509 182.58 232.725 182.452C232.949 182.324 233.197 182.26 233.469 182.26H236.013V183.244H233.469C233.341 183.244 233.229 183.292 233.133 183.388C233.045 183.476 233.001 183.584 233.001 183.712V184.54H236.013V185.524H233.001V191.5H232.017ZM238.331 191.5C238.067 191.5 237.823 191.436 237.599 191.308C237.383 191.172 237.207 190.996 237.071 190.78C236.943 190.556 236.879 190.312 236.879 190.048V185.992C236.879 185.728 236.943 185.488 237.071 185.272C237.207 185.048 237.383 184.872 237.599 184.744C237.823 184.608 238.067 184.54 238.331 184.54H242.507C242.779 184.54 243.023 184.608 243.239 184.744C243.463 184.872 243.639 185.048 243.767 185.272C243.903 185.488 243.971 185.728 243.971 185.992V188.512H237.863V190.048C237.863 190.176 237.907 190.288 237.995 190.384C238.091 190.472 238.203 190.516 238.331 190.516H243.971V191.5H238.331ZM237.863 187.528H242.975V185.992C242.975 185.864 242.927 185.756 242.831 185.668C242.743 185.572 242.635 185.524 242.507 185.524H238.331C238.203 185.524 238.091 185.572 237.995 185.668C237.907 185.756 237.863 185.864 237.863 185.992V187.528Z" fill="black"/>
<path d="M236.732 11.3947C239.217 11.3947 241.232 13.4095 241.232 15.8947V85.8947C241.232 88.38 239.217 90.3947 236.732 90.3947C234.247 90.3947 232.232 88.38 232.232 85.8947V15.8947C232.232 13.4095 234.247 11.3947 236.732 11.3947Z" fill="#F5F5F5" stroke="#F5F5F5"/>
<circle cx="236.732" cy="10.8947" r="9.5" fill="#91F2CF" stroke="#F5F5F5"/>
<path d="M7.30634 102.255C7.30649 98.6127 11.0552 96.177 14.3835 97.6562L56.6784 116.457L56.7751 116.5H100.036C102.521 116.5 104.536 118.515 104.536 121C104.536 123.485 102.521 125.5 100.036 125.5H56.9763L10.4733 106.93C8.56102 106.166 7.30633 104.314 7.30634 102.255Z" fill="#F5F5F5" stroke="#F5F5F5"/>
<circle cx="10.7286" cy="99.8701" r="9.5" transform="rotate(-90 10.7286 99.8701)" fill="#91F2CF" stroke="#F5F5F5"/>
<path d="M144.057 49.6424L144.028 49.5604L133.084 18.9598C132.025 15.9992 134.22 12.8837 137.364 12.8836C139.166 12.8836 140.785 13.9458 141.512 15.5702L141.645 15.9022L153.739 49.8104L153.143 84.2762C153.1 86.7541 151.079 88.74 148.6 88.7401C146.091 88.7401 144.057 86.7063 144.057 84.1971V49.6424Z" fill="#F5F5F5" stroke="#F5F5F5"/>
<circle cx="135.753" cy="12.3836" r="9.5" fill="#91F2CF" stroke="#F5F5F5"/>
<path d="M65.4378 251.103L65.3558 251.132L34.7552 262.077C31.7946 263.135 28.6791 260.941 28.679 257.796C28.679 255.995 29.7412 254.375 31.3655 253.648L31.6976 253.515L65.6058 241.421L100.072 242.017C102.549 242.06 104.535 244.082 104.535 246.56C104.535 249.069 102.502 251.103 99.9925 251.103H65.4378Z" fill="#F5F5F5" stroke="#F5F5F5"/>
<circle cx="28.179" cy="259.407" r="9.5" transform="rotate(-90 28.179 259.407)" fill="#91F2CF" stroke="#F5F5F5"/>
<path d="M278.757 49.7404C281.242 49.7404 283.257 51.7551 283.257 54.2404V84.2404C283.257 86.7256 281.242 88.7404 278.757 88.7404C276.272 88.7404 274.257 86.7256 274.257 84.2404V54.2404C274.257 51.7551 276.272 49.7404 278.757 49.7404Z" fill="#F5F5F5" stroke="#F5F5F5"/>
<path d="M65.5357 151.363C65.5357 148.878 67.5504 146.863 70.0357 146.863H100.036C102.521 146.863 104.536 148.878 104.536 151.363C104.536 153.849 102.521 155.863 100.036 155.863H70.0357C67.5504 155.863 65.5357 153.849 65.5357 151.363Z" fill="#F5F5F5" stroke="#F5F5F5"/>
<circle cx="65.0357" cy="151.363" r="9.5" transform="rotate(-90 65.0357 151.363)" fill="#91F2CF" stroke="#F5F5F5"/>
<path d="M194.707 49.7404C197.192 49.7404 199.207 51.7551 199.207 54.2404V84.2404C199.207 86.7256 197.192 88.7404 194.707 88.7404C192.221 88.7404 190.207 86.7256 190.207 84.2404V54.2404C190.207 51.7551 192.221 49.7404 194.707 49.7404Z" fill="#F5F5F5" stroke="#F5F5F5"/>
<path d="M65.5357 197C65.5357 194.515 67.5504 192.5 70.0357 192.5H100.036C102.521 192.5 104.536 194.515 104.536 197C104.536 199.485 102.521 201.5 100.036 201.5H70.0357C67.5504 201.5 65.5357 199.485 65.5357 197Z" fill="#F5F5F5" stroke="#F5F5F5"/>
<path d="M385.513 187C385.513 189.485 383.498 191.5 381.013 191.5H311.013C308.528 191.5 306.513 189.485 306.513 187C306.513 184.515 308.528 182.5 311.013 182.5H381.013C383.498 182.5 385.513 184.515 385.513 187Z" fill="#F5F5F5" stroke="#F5F5F5"/>
<path d="M353.241 143.256L353.364 143.176L394.428 116.65C397.051 114.956 400.567 116.155 401.61 119.097C402.372 121.248 401.526 123.64 399.582 124.834L354.908 152.256H311.013C308.528 152.256 306.513 150.241 306.513 147.756C306.513 145.27 308.528 143.256 311.013 143.256H353.241Z" fill="#F5F5F5" stroke="#F5F5F5"/>
<circle cx="403.523" cy="116.889" r="9.5" transform="rotate(90 403.523 116.889)" fill="#91F2CF" stroke="#F5F5F5"/>
<path d="M355.513 236.206C355.513 238.925 352.797 240.805 350.252 239.849L331.364 232.744L331.278 232.712H311.013C308.528 232.712 306.513 230.697 306.513 228.212C306.513 225.727 308.528 223.712 311.013 223.712H330.437L353.043 232.584C354.533 233.169 355.513 234.606 355.513 236.206Z" fill="#F5F5F5" stroke="#F5F5F5"/>
<circle cx="352.519" cy="236.497" r="9.5" transform="rotate(90 352.519 236.497)" fill="#91F2CF" stroke="#F5F5F5"/>
<path d="M227.776 367.736C225.291 367.736 223.276 365.721 223.276 363.236V293.236C223.276 290.75 225.291 288.736 227.776 288.736C230.261 288.736 232.276 290.75 232.276 293.236V363.236C232.276 365.721 230.261 367.736 227.776 367.736Z" fill="#F5F5F5" stroke="#F5F5F5"/>
<circle cx="227.776" cy="368.236" r="9.5" transform="rotate(-180 227.776 368.236)" fill="#91F2CF" stroke="#F5F5F5"/>
<path d="M142.333 372.163C139.377 372.163 137.594 368.891 139.196 366.407L159.341 335.169L159.421 335.045V293.235C159.422 290.75 161.436 288.735 163.921 288.735C166.407 288.735 168.421 290.75 168.421 293.235V336.644L145.421 370.526C144.727 371.55 143.569 372.163 142.333 372.163Z" fill="#F5F5F5" stroke="#F5F5F5"/>
<circle cx="141.744" cy="368.236" r="9.5" transform="rotate(-180 141.744 368.236)" fill="#91F2CF" stroke="#F5F5F5"/>
<path d="M261.764 317.736C259.279 317.736 257.264 315.721 257.264 313.236V293.236C257.264 290.75 259.279 288.736 261.764 288.736C264.249 288.736 266.264 290.75 266.264 293.236V313.236C266.264 315.721 264.249 317.736 261.764 317.736Z" fill="#F5F5F5" stroke="#F5F5F5"/>
<path d="M195.866 317.735C193.38 317.735 191.366 315.721 191.366 313.235V293.235C191.366 290.75 193.38 288.735 195.866 288.735C198.351 288.735 200.366 290.75 200.366 293.235V313.235C200.366 315.721 198.351 317.735 195.866 317.735Z" fill="#F5F5F5" stroke="#F5F5F5"/>
</svg>
